# xmcd CD database file
#
# Track frame offsets:
#	150
#	12202
#	24560
#	34547
#	51790
#	68300
#	82750
#	102490
#	113375
#	129782
#	146980
#	166097
#	186122
#	201357
#	219330
#	234927
#	250005
#	266540
#	282330
#	299065
#
# Disc length: 4197 seconds
#
# Revision: 9
# Processed by: cddbd v1.5.2PL0 Copyright (c) Steve Scherf et al.
# Submitted via: CDex 1.81
#
DISCID=0c106314
DTITLE=Ono Lisa - Best 1997-2001
DYEAR=2002
DGENRE=Jazz
TTITLE0=Red Blouse
TTITLE1=Moonlight Serenade
TTITLE2=Sanba De Verao
TTITLE3=I Wish You Love
TTITLE4=Chega De Saudade
TTITLE5=Ela E Carioca
TTITLE6=Moon River
TTITLE7=Flor De Yemanja
TTITLE8=Pretty World
TTITLE9=Smile
TTITLE10=Dream
TTITLE11=Palpite Infeliz
TTITLE12=In The Mood/Edmund
TTITLE13=My Cherie Amour
TTITLE14=Non-Stop To Brazil
TTITLE15=Blue Hawaii
TTITLE16=Pikake
TTITLE17=Angel's Eyes
TTITLE18=Aguas De Marco
TTITLE19=Sanma De Una Nota So
EXTD=YEAR: 2002
EXTT0=
EXTT1=
EXTT2=
EXTT3=
EXTT4=
EXTT5=
EXTT6=
EXTT7=
EXTT8=
EXTT9=
EXTT10=
EXTT11=
EXTT12=
EXTT13=
EXTT14=
EXTT15=
EXTT16=
EXTT17=
EXTT18=
EXTT19=
PLAYORDER=
